<?xml version="1.0" encoding="utf-8" standalone="no"?>
<!DOCTYPE svg PUBLIC "-//W3C//DTD SVG 1.1//EN"
  "http://www.w3.org/Graphics/SVG/1.1/DTD/svg11.dtd">
<svg xmlns:xlink="http://www.w3.org/1999/xlink" width="1080pt" height="720pt" viewBox="0 0 1080 720" xmlns="http://www.w3.org/2000/svg" version="1.1">
 <metadata>
  <rdf:RDF xmlns:dc="http://purl.org/dc/elements/1.1/" xmlns:cc="http://creativecommons.org/ns#" xmlns:rdf="http://www.w3.org/1999/02/22-rdf-syntax-ns#">
   <cc:Work>
    <dc:type rdf:resource="http://purl.org/dc/dcmitype/StillImage"/>
    <dc:date>2025-06-23T10:54:50.581642</dc:date>
    <dc:format>image/svg+xml</dc:format>
    <dc:creator>
     <cc:Agent>
      <dc:title>Matplotlib v3.10.3, https://matplotlib.org/</dc:title>
     </cc:Agent>
    </dc:creator>
   </cc:Work>
  </rdf:RDF>
 </metadata>
 <defs>
  <style type="text/css">*{stroke-linejoin: round; stroke-linecap: butt}</style>
 </defs>
 <g id="figure_1">
  <g id="patch_1">
   <path d="M 0 720 
L 1080 720 
L 1080 0 
L 0 0 
z
" style="fill: #ffffff"/>
  </g>
  <g id="axes_1">
   <g id="patch_2">
    <path d="M 118.479175 686.456586 
Q 212.728742 686.456586 305.860276 686.456586 
" clip-path="url(#p1bf8de4bdf)" style="fill: none; stroke: #808080; stroke-opacity: 0.8; stroke-linecap: round"/>
    <path d="M 295.860276 681.456586 
L 305.860276 686.456586 
L 295.860276 691.456586 
z
" clip-path="url(#p1bf8de4bdf)" style="fill: #808080; fill-opacity: 0.8; stroke: #808080; stroke-opacity: 0.8; stroke-linecap: round"/>
   </g>
   <g id="patch_3">
    <path d="M 370.227426 686.456586 
Q 464.476994 686.456586 557.608528 686.456586 
" clip-path="url(#p1bf8de4bdf)" style="fill: none; stroke: #808080; stroke-opacity: 0.8; stroke-linecap: round"/>
    <path d="M 547.608528 681.456586 
L 557.608528 686.456586 
L 547.608528 691.456586 
z
" clip-path="url(#p1bf8de4bdf)" style="fill: #808080; fill-opacity: 0.8; stroke: #808080; stroke-opacity: 0.8; stroke-linecap: round"/>
   </g>
   <g id="patch_4">
    <path d="M 621.975678 686.456586 
Q 716.225246 686.456586 809.356779 686.456586 
" clip-path="url(#p1bf8de4bdf)" style="fill: none; stroke: #808080; stroke-opacity: 0.8; stroke-linecap: round"/>
    <path d="M 799.356779 681.456586 
L 809.356779 686.456586 
L 799.356779 691.456586 
z
" clip-path="url(#p1bf8de4bdf)" style="fill: #808080; fill-opacity: 0.8; stroke: #808080; stroke-opacity: 0.8; stroke-linecap: round"/>
   </g>
   <g id="patch_5">
    <path d="M 842.097902 33.543414 
C 1093.846154 33.543414 1093.846154 686.456586 842.097902 686.456586 
C 590.34965 686.456586 590.34965 33.543414 840.979868 33.543414 
" clip-path="url(#p1bf8de4bdf)" style="fill: none; stroke: #808080; stroke-opacity: 0.8; stroke-linecap: round"/>
    <path d="M 830.979868 28.543414 
L 840.979868 33.543414 
L 830.979868 38.543414 
z
" clip-path="url(#p1bf8de4bdf)" style="fill: #808080; fill-opacity: 0.8; stroke: #808080; stroke-opacity: 0.8; stroke-linecap: round"/>
   </g>
   <g id="text_1">
    <g id="patch_6">
     <path d="M 164.306058 717.251312 
L 261.149808 717.251312 
Q 264.899808 717.251312 264.899808 713.501312 
L 264.899808 659.411859 
Q 264.899808 655.661859 261.149808 655.661859 
L 164.306058 655.661859 
Q 160.556058 655.661859 160.556058 659.411859 
L 160.556058 713.501312 
Q 160.556058 717.251312 164.306058 717.251312 
z
" clip-path="url(#p1bf8de4bdf)" style="fill: #ffffff; stroke: #ffffff; stroke-linejoin: miter"/>
    </g>
    <g clip-path="url(#p1bf8de4bdf)">
     <!-- is associated -->
     <g style="fill: #ff0000" transform="translate(172.316801 668.909906) scale(0.125 -0.125)">
      <defs>
       <path id="DejaVuSans-69" d="M 603 3500 
L 1178 3500 
L 1178 0 
L 603 0 
L 603 3500 
z
M 603 4863 
L 1178 4863 
L 1178 4134 
L 603 4134 
L 603 4863 
z
" transform="scale(0.015625)"/>
       <path id="DejaVuSans-73" d="M 2834 3397 
L 2834 2853 
Q 2591 2978 2328 3040 
Q 2066 3103 1784 3103 
Q 1356 3103 1142 2972 
Q 928 2841 928 2578 
Q 928 2378 1081 2264 
Q 1234 2150 1697 2047 
L 1894 2003 
Q 2506 1872 2764 1633 
Q 3022 1394 3022 966 
Q 3022 478 2636 193 
Q 2250 -91 1575 -91 
Q 1294 -91 989 -36 
Q 684 19 347 128 
L 347 722 
Q 666 556 975 473 
Q 1284 391 1588 391 
Q 1994 391 2212 530 
Q 2431 669 2431 922 
Q 2431 1156 2273 1281 
Q 2116 1406 1581 1522 
L 1381 1569 
Q 847 1681 609 1914 
Q 372 2147 372 2553 
Q 372 3047 722 3315 
Q 1072 3584 1716 3584 
Q 2034 3584 2315 3537 
Q 2597 3491 2834 3397 
z
" transform="scale(0.015625)"/>
       <path id="DejaVuSans-20" transform="scale(0.015625)"/>
       <path id="DejaVuSans-61" d="M 2194 1759 
Q 1497 1759 1228 1600 
Q 959 1441 959 1056 
Q 959 750 1161 570 
Q 1363 391 1709 391 
Q 2188 391 2477 730 
Q 2766 1069 2766 1631 
L 2766 1759 
L 2194 1759 
z
M 3341 1997 
L 3341 0 
L 2766 0 
L 2766 531 
Q 2569 213 2275 61 
Q 1981 -91 1556 -91 
Q 1019 -91 701 211 
Q 384 513 384 1019 
Q 384 1609 779 1909 
Q 1175 2209 1959 2209 
L 2766 2209 
L 2766 2266 
Q 2766 2663 2505 2880 
Q 2244 3097 1772 3097 
Q 1472 3097 1187 3025 
Q 903 2953 641 2809 
L 641 3341 
Q 956 3463 1253 3523 
Q 1550 3584 1831 3584 
Q 2591 3584 2966 3190 
Q 3341 2797 3341 1997 
z
" transform="scale(0.015625)"/>
       <path id="DejaVuSans-6f" d="M 1959 3097 
Q 1497 3097 1228 2736 
Q 959 2375 959 1747 
Q 959 1119 1226 758 
Q 1494 397 1959 397 
Q 2419 397 2687 759 
Q 2956 1122 2956 1747 
Q 2956 2369 2687 2733 
Q 2419 3097 1959 3097 
z
M 1959 3584 
Q 2709 3584 3137 3096 
Q 3566 2609 3566 1747 
Q 3566 888 3137 398 
Q 2709 -91 1959 -91 
Q 1206 -91 779 398 
Q 353 888 353 1747 
Q 353 2609 779 3096 
Q 1206 3584 1959 3584 
z
" transform="scale(0.015625)"/>
       <path id="DejaVuSans-63" d="M 3122 3366 
L 3122 2828 
Q 2878 2963 2633 3030 
Q 2388 3097 2138 3097 
Q 1578 3097 1268 2742 
Q 959 2388 959 1747 
Q 959 1106 1268 751 
Q 1578 397 2138 397 
Q 2388 397 2633 464 
Q 2878 531 3122 666 
L 3122 134 
Q 2881 22 2623 -34 
Q 2366 -91 2075 -91 
Q 1284 -91 818 406 
Q 353 903 353 1747 
Q 353 2603 823 3093 
Q 1294 3584 2113 3584 
Q 2378 3584 2631 3529 
Q 2884 3475 3122 3366 
z
" transform="scale(0.015625)"/>
       <path id="DejaVuSans-74" d="M 1172 4494 
L 1172 3500 
L 2356 3500 
L 2356 3053 
L 1172 3053 
L 1172 1153 
Q 1172 725 1289 603 
Q 1406 481 1766 481 
L 2356 481 
L 2356 0 
L 1766 0 
Q 1100 0 847 248 
Q 594 497 594 1153 
L 594 3053 
L 172 3053 
L 172 3500 
L 594 3500 
L 594 4494 
L 1172 4494 
z
" transform="scale(0.015625)"/>
       <path id="DejaVuSans-65" d="M 3597 1894 
L 3597 1613 
L 953 1613 
Q 991 1019 1311 708 
Q 1631 397 2203 397 
Q 2534 397 2845 478 
Q 3156 559 3463 722 
L 3463 178 
Q 3153 47 2828 -22 
Q 2503 -91 2169 -91 
Q 1331 -91 842 396 
Q 353 884 353 1716 
Q 353 2575 817 3079 
Q 1281 3584 2069 3584 
Q 2775 3584 3186 3129 
Q 3597 2675 3597 1894 
z
M 3022 2063 
Q 3016 2534 2758 2815 
Q 2500 3097 2075 3097 
Q 1594 3097 1305 2825 
Q 1016 2553 972 2059 
L 3022 2063 
z
" transform="scale(0.015625)"/>
       <path id="DejaVuSans-64" d="M 2906 2969 
L 2906 4863 
L 3481 4863 
L 3481 0 
L 2906 0 
L 2906 525 
Q 2725 213 2448 61 
Q 2172 -91 1784 -91 
Q 1150 -91 751 415 
Q 353 922 353 1747 
Q 353 2572 751 3078 
Q 1150 3584 1784 3584 
Q 2172 3584 2448 3432 
Q 2725 3281 2906 2969 
z
M 947 1747 
Q 947 1113 1208 752 
Q 1469 391 1925 391 
Q 2381 391 2643 752 
Q 2906 1113 2906 1747 
Q 2906 2381 2643 2742 
Q 2381 3103 1925 3103 
Q 1469 3103 1208 2742 
Q 947 2381 947 1747 
z
" transform="scale(0.015625)"/>
      </defs>
      <use xlink:href="#DejaVuSans-69"/>
      <use xlink:href="#DejaVuSans-73" transform="translate(27.783203 0)"/>
      <use xlink:href="#DejaVuSans-20" transform="translate(79.882812 0)"/>
      <use xlink:href="#DejaVuSans-61" transform="translate(111.669922 0)"/>
      <use xlink:href="#DejaVuSans-73" transform="translate(172.949219 0)"/>
      <use xlink:href="#DejaVuSans-73" transform="translate(225.048828 0)"/>
      <use xlink:href="#DejaVuSans-6f" transform="translate(277.148438 0)"/>
      <use xlink:href="#DejaVuSans-63" transform="translate(338.330078 0)"/>
      <use xlink:href="#DejaVuSans-69" transform="translate(393.310547 0)"/>
      <use xlink:href="#DejaVuSans-61" transform="translate(421.09375 0)"/>
      <use xlink:href="#DejaVuSans-74" transform="translate(482.373047 0)"/>
      <use xlink:href="#DejaVuSans-65" transform="translate(521.582031 0)"/>
      <use xlink:href="#DejaVuSans-64" transform="translate(583.105469 0)"/>
     </g>
    </g>
    <g clip-path="url(#p1bf8de4bdf)">
     <!-- with risk -->
     <g style="fill: #ff0000" transform="translate(186.302152 682.907172) scale(0.125 -0.125)">
      <defs>
       <path id="DejaVuSans-77" d="M 269 3500 
L 844 3500 
L 1563 769 
L 2278 3500 
L 2956 3500 
L 3675 769 
L 4391 3500 
L 4966 3500 
L 4050 0 
L 3372 0 
L 2619 2869 
L 1863 0 
L 1184 0 
L 269 3500 
z
" transform="scale(0.015625)"/>
       <path id="DejaVuSans-68" d="M 3513 2113 
L 3513 0 
L 2938 0 
L 2938 2094 
Q 2938 2591 2744 2837 
Q 2550 3084 2163 3084 
Q 1697 3084 1428 2787 
Q 1159 2491 1159 1978 
L 1159 0 
L 581 0 
L 581 4863 
L 1159 4863 
L 1159 2956 
Q 1366 3272 1645 3428 
Q 1925 3584 2291 3584 
Q 2894 3584 3203 3211 
Q 3513 2838 3513 2113 
z
" transform="scale(0.015625)"/>
       <path id="DejaVuSans-72" d="M 2631 2963 
Q 2534 3019 2420 3045 
Q 2306 3072 2169 3072 
Q 1681 3072 1420 2755 
Q 1159 2438 1159 1844 
L 1159 0 
L 581 0 
L 581 3500 
L 1159 3500 
L 1159 2956 
Q 1341 3275 1631 3429 
Q 1922 3584 2338 3584 
Q 2397 3584 2469 3576 
Q 2541 3569 2628 3553 
L 2631 2963 
z
" transform="scale(0.015625)"/>
       <path id="DejaVuSans-6b" d="M 581 4863 
L 1159 4863 
L 1159 1991 
L 2875 3500 
L 3609 3500 
L 1753 1863 
L 3688 0 
L 2938 0 
L 1159 1709 
L 1159 0 
L 581 0 
L 581 4863 
z
" transform="scale(0.015625)"/>
      </defs>
      <use xlink:href="#DejaVuSans-77"/>
      <use xlink:href="#DejaVuSans-69" transform="translate(81.787109 0)"/>
      <use xlink:href="#DejaVuSans-74" transform="translate(109.570312 0)"/>
      <use xlink:href="#DejaVuSans-68" transform="translate(148.779297 0)"/>
      <use xlink:href="#DejaVuSans-20" transform="translate(212.158203 0)"/>
      <use xlink:href="#DejaVuSans-72" transform="translate(243.945312 0)"/>
      <use xlink:href="#DejaVuSans-69" transform="translate(285.058594 0)"/>
      <use xlink:href="#DejaVuSans-73" transform="translate(312.841797 0)"/>
      <use xlink:href="#DejaVuSans-6b" transform="translate(364.941406 0)"/>
     </g>
    </g>
    <g clip-path="url(#p1bf8de4bdf)">
     <!-- of,is associated -->
     <g style="fill: #ff0000" transform="translate(164.306058 696.904437) scale(0.125 -0.125)">
      <defs>
       <path id="DejaVuSans-66" d="M 2375 4863 
L 2375 4384 
L 1825 4384 
Q 1516 4384 1395 4259 
Q 1275 4134 1275 3809 
L 1275 3500 
L 2222 3500 
L 2222 3053 
L 1275 3053 
L 1275 0 
L 697 0 
L 697 3053 
L 147 3053 
L 147 3500 
L 697 3500 
L 697 3744 
Q 697 4328 969 4595 
Q 1241 4863 1831 4863 
L 2375 4863 
z
" transform="scale(0.015625)"/>
       <path id="DejaVuSans-2c" d="M 750 794 
L 1409 794 
L 1409 256 
L 897 -744 
L 494 -744 
L 750 256 
L 750 794 
z
" transform="scale(0.015625)"/>
      </defs>
      <use xlink:href="#DejaVuSans-6f"/>
      <use xlink:href="#DejaVuSans-66" transform="translate(61.181641 0)"/>
      <use xlink:href="#DejaVuSans-2c" transform="translate(96.386719 0)"/>
      <use xlink:href="#DejaVuSans-69" transform="translate(128.173828 0)"/>
      <use xlink:href="#DejaVuSans-73" transform="translate(155.957031 0)"/>
      <use xlink:href="#DejaVuSans-20" transform="translate(208.056641 0)"/>
      <use xlink:href="#DejaVuSans-61" transform="translate(239.84375 0)"/>
      <use xlink:href="#DejaVuSans-73" transform="translate(301.123047 0)"/>
      <use xlink:href="#DejaVuSans-73" transform="translate(353.222656 0)"/>
      <use xlink:href="#DejaVuSans-6f" transform="translate(405.322266 0)"/>
      <use xlink:href="#DejaVuSans-63" transform="translate(466.503906 0)"/>
      <use xlink:href="#DejaVuSans-69" transform="translate(521.484375 0)"/>
      <use xlink:href="#DejaVuSans-61" transform="translate(549.267578 0)"/>
      <use xlink:href="#DejaVuSans-74" transform="translate(610.546875 0)"/>
      <use xlink:href="#DejaVuSans-65" transform="translate(649.755859 0)"/>
      <use xlink:href="#DejaVuSans-64" transform="translate(711.279297 0)"/>
     </g>
    </g>
    <g clip-path="url(#p1bf8de4bdf)">
     <!-- with -->
     <g style="fill: #ff0000" transform="translate(199.469144 710.901703) scale(0.125 -0.125)">
      <use xlink:href="#DejaVuSans-77"/>
      <use xlink:href="#DejaVuSans-69" transform="translate(81.787109 0)"/>
      <use xlink:href="#DejaVuSans-74" transform="translate(109.570312 0)"/>
      <use xlink:href="#DejaVuSans-68" transform="translate(148.779297 0)"/>
     </g>
    </g>
   </g>
   <g id="text_2">
    <g id="patch_7">
     <path d="M 424.846302 703.254047 
L 504.106068 703.254047 
Q 507.856068 703.254047 507.856068 699.504047 
L 507.856068 673.409125 
Q 507.856068 669.659125 504.106068 669.659125 
L 424.846302 669.659125 
Q 421.096302 669.659125 421.096302 673.409125 
L 421.096302 699.504047 
Q 421.096302 703.254047 424.846302 703.254047 
z
" clip-path="url(#p1bf8de4bdf)" style="fill: #ffffff; stroke: #ffffff; stroke-linejoin: miter"/>
    </g>
    <g clip-path="url(#p1bf8de4bdf)">
     <!-- is influenced -->
     <g style="fill: #ff0000" transform="translate(424.846302 682.907172) scale(0.125 -0.125)">
      <defs>
       <path id="DejaVuSans-6e" d="M 3513 2113 
L 3513 0 
L 2938 0 
L 2938 2094 
Q 2938 2591 2744 2837 
Q 2550 3084 2163 3084 
Q 1697 3084 1428 2787 
Q 1159 2491 1159 1978 
L 1159 0 
L 581 0 
L 581 3500 
L 1159 3500 
L 1159 2956 
Q 1366 3272 1645 3428 
Q 1925 3584 2291 3584 
Q 2894 3584 3203 3211 
Q 3513 2838 3513 2113 
z
" transform="scale(0.015625)"/>
       <path id="DejaVuSans-6c" d="M 603 4863 
L 1178 4863 
L 1178 0 
L 603 0 
L 603 4863 
z
" transform="scale(0.015625)"/>
       <path id="DejaVuSans-75" d="M 544 1381 
L 544 3500 
L 1119 3500 
L 1119 1403 
Q 1119 906 1312 657 
Q 1506 409 1894 409 
Q 2359 409 2629 706 
Q 2900 1003 2900 1516 
L 2900 3500 
L 3475 3500 
L 3475 0 
L 2900 0 
L 2900 538 
Q 2691 219 2414 64 
Q 2138 -91 1772 -91 
Q 1169 -91 856 284 
Q 544 659 544 1381 
z
M 1991 3584 
L 1991 3584 
z
" transform="scale(0.015625)"/>
      </defs>
      <use xlink:href="#DejaVuSans-69"/>
      <use xlink:href="#DejaVuSans-73" transform="translate(27.783203 0)"/>
      <use xlink:href="#DejaVuSans-20" transform="translate(79.882812 0)"/>
      <use xlink:href="#DejaVuSans-69" transform="translate(111.669922 0)"/>
      <use xlink:href="#DejaVuSans-6e" transform="translate(139.453125 0)"/>
      <use xlink:href="#DejaVuSans-66" transform="translate(202.832031 0)"/>
      <use xlink:href="#DejaVuSans-6c" transform="translate(238.037109 0)"/>
      <use xlink:href="#DejaVuSans-75" transform="translate(265.820312 0)"/>
      <use xlink:href="#DejaVuSans-65" transform="translate(329.199219 0)"/>
      <use xlink:href="#DejaVuSans-6e" transform="translate(390.722656 0)"/>
      <use xlink:href="#DejaVuSans-63" transform="translate(454.101562 0)"/>
      <use xlink:href="#DejaVuSans-65" transform="translate(509.082031 0)"/>
      <use xlink:href="#DejaVuSans-64" transform="translate(570.605469 0)"/>
     </g>
    </g>
    <g clip-path="url(#p1bf8de4bdf)">
     <!-- by -->
     <g style="fill: #ff0000" transform="translate(456.809193 696.904437) scale(0.125 -0.125)">
      <defs>
       <path id="DejaVuSans-62" d="M 3116 1747 
Q 3116 2381 2855 2742 
Q 2594 3103 2138 3103 
Q 1681 3103 1420 2742 
Q 1159 2381 1159 1747 
Q 1159 1113 1420 752 
Q 1681 391 2138 391 
Q 2594 391 2855 752 
Q 3116 1113 3116 1747 
z
M 1159 2969 
Q 1341 3281 1617 3432 
Q 1894 3584 2278 3584 
Q 2916 3584 3314 3078 
Q 3713 2572 3713 1747 
Q 3713 922 3314 415 
Q 2916 -91 2278 -91 
Q 1894 -91 1617 61 
Q 1341 213 1159 525 
L 1159 0 
L 581 0 
L 581 4863 
L 1159 4863 
L 1159 2969 
z
" transform="scale(0.015625)"/>
       <path id="DejaVuSans-79" d="M 2059 -325 
Q 1816 -950 1584 -1140 
Q 1353 -1331 966 -1331 
L 506 -1331 
L 506 -850 
L 844 -850 
Q 1081 -850 1212 -737 
Q 1344 -625 1503 -206 
L 1606 56 
L 191 3500 
L 800 3500 
L 1894 763 
L 2988 3500 
L 3597 3500 
L 2059 -325 
z
" transform="scale(0.015625)"/>
      </defs>
      <use xlink:href="#DejaVuSans-62"/>
      <use xlink:href="#DejaVuSans-79" transform="translate(63.476562 0)"/>
     </g>
    </g>
   </g>
   <g id="text_3">
    <g id="patch_8">
     <path d="M 686.675609 703.254047 
L 745.773265 703.254047 
Q 749.523265 703.254047 749.523265 699.504047 
L 749.523265 673.409125 
Q 749.523265 669.659125 745.773265 669.659125 
L 686.675609 669.659125 
Q 682.925609 669.659125 682.925609 673.409125 
L 682.925609 699.504047 
Q 682.925609 703.254047 686.675609 703.254047 
z
" clip-path="url(#p1bf8de4bdf)" style="fill: #ffffff; stroke: #ffffff; stroke-linejoin: miter"/>
    </g>
    <g clip-path="url(#p1bf8de4bdf)">
     <!-- is also -->
     <g style="fill: #ff0000" transform="translate(696.599437 682.907172) scale(0.125 -0.125)">
      <use xlink:href="#DejaVuSans-69"/>
      <use xlink:href="#DejaVuSans-73" transform="translate(27.783203 0)"/>
      <use xlink:href="#DejaVuSans-20" transform="translate(79.882812 0)"/>
      <use xlink:href="#DejaVuSans-61" transform="translate(111.669922 0)"/>
      <use xlink:href="#DejaVuSans-6c" transform="translate(172.949219 0)"/>
      <use xlink:href="#DejaVuSans-73" transform="translate(200.732422 0)"/>
      <use xlink:href="#DejaVuSans-6f" transform="translate(252.832031 0)"/>
     </g>
    </g>
    <g clip-path="url(#p1bf8de4bdf)">
     <!-- known as -->
     <g style="fill: #ff0000" transform="translate(686.675609 696.904437) scale(0.125 -0.125)">
      <use xlink:href="#DejaVuSans-6b"/>
      <use xlink:href="#DejaVuSans-6e" transform="translate(57.910156 0)"/>
      <use xlink:href="#DejaVuSans-6f" transform="translate(121.289062 0)"/>
      <use xlink:href="#DejaVuSans-77" transform="translate(182.470703 0)"/>
      <use xlink:href="#DejaVuSans-6e" transform="translate(264.257812 0)"/>
      <use xlink:href="#DejaVuSans-20" transform="translate(327.636719 0)"/>
      <use xlink:href="#DejaVuSans-61" transform="translate(359.423828 0)"/>
      <use xlink:href="#DejaVuSans-73" transform="translate(420.703125 0)"/>
     </g>
    </g>
   </g>
   <g id="PathCollection_1">
    <defs>
     <path id="m6af6f00870" d="M 0 31.622777 
C 8.386458 31.622777 16.430558 28.290801 22.36068 22.36068 
C 28.290801 16.430558 31.622777 8.386458 31.622777 0 
C 31.622777 -8.386458 28.290801 -16.430558 22.36068 -22.36068 
C 16.430558 -28.290801 8.386458 -31.622777 0 -31.622777 
C -8.386458 -31.622777 -16.430558 -28.290801 -22.36068 -22.36068 
C -28.290801 -16.430558 -31.622777 -8.386458 -31.622777 0 
C -31.622777 8.386458 -28.290801 16.430558 -22.36068 22.36068 
C -16.430558 28.290801 -8.386458 31.622777 0 31.622777 
z
" style="stroke: #add8e6; stroke-opacity: 0.8; stroke-width: 1.25"/>
    </defs>
    <g clip-path="url(#p1bf8de4bdf)">
     <use xlink:href="#m6af6f00870" x="86.853147" y="686.456586" style="fill: #add8e6; fill-opacity: 0.8; stroke: #add8e6; stroke-opacity: 0.8; stroke-width: 1.25"/>
     <use xlink:href="#m6af6f00870" x="338.601399" y="686.456586" style="fill: #add8e6; fill-opacity: 0.8; stroke: #add8e6; stroke-opacity: 0.8; stroke-width: 1.25"/>
     <use xlink:href="#m6af6f00870" x="590.34965" y="686.456586" style="fill: #add8e6; fill-opacity: 0.8; stroke: #add8e6; stroke-opacity: 0.8; stroke-width: 1.25"/>
     <use xlink:href="#m6af6f00870" x="842.097902" y="686.456586" style="fill: #add8e6; fill-opacity: 0.8; stroke: #add8e6; stroke-opacity: 0.8; stroke-width: 1.25"/>
    </g>
   </g>
   <g id="text_4">
    <g clip-path="url(#p1bf8de4bdf)">
     <!-- ambroxol -->
     <g style="opacity: 0.8" transform="translate(57.845334 689.905805) scale(0.125 -0.125)">
      <defs>
       <path id="DejaVuSans-6d" d="M 3328 2828 
Q 3544 3216 3844 3400 
Q 4144 3584 4550 3584 
Q 5097 3584 5394 3201 
Q 5691 2819 5691 2113 
L 5691 0 
L 5113 0 
L 5113 2094 
Q 5113 2597 4934 2840 
Q 4756 3084 4391 3084 
Q 3944 3084 3684 2787 
Q 3425 2491 3425 1978 
L 3425 0 
L 2847 0 
L 2847 2094 
Q 2847 2600 2669 2842 
Q 2491 3084 2119 3084 
Q 1678 3084 1418 2786 
Q 1159 2488 1159 1978 
L 1159 0 
L 581 0 
L 581 3500 
L 1159 3500 
L 1159 2956 
Q 1356 3278 1631 3431 
Q 1906 3584 2284 3584 
Q 2666 3584 2933 3390 
Q 3200 3197 3328 2828 
z
" transform="scale(0.015625)"/>
       <path id="DejaVuSans-78" d="M 3513 3500 
L 2247 1797 
L 3578 0 
L 2900 0 
L 1881 1375 
L 863 0 
L 184 0 
L 1544 1831 
L 300 3500 
L 978 3500 
L 1906 2253 
L 2834 3500 
L 3513 3500 
z
" transform="scale(0.015625)"/>
      </defs>
      <use xlink:href="#DejaVuSans-61"/>
      <use xlink:href="#DejaVuSans-6d" transform="translate(61.279297 0)"/>
      <use xlink:href="#DejaVuSans-62" transform="translate(158.691406 0)"/>
      <use xlink:href="#DejaVuSans-72" transform="translate(222.167969 0)"/>
      <use xlink:href="#DejaVuSans-6f" transform="translate(261.03125 0)"/>
      <use xlink:href="#DejaVuSans-78" transform="translate(319.087891 0)"/>
      <use xlink:href="#DejaVuSans-6f" transform="translate(375.142578 0)"/>
      <use xlink:href="#DejaVuSans-6c" transform="translate(436.324219 0)"/>
     </g>
    </g>
   </g>
   <g id="text_5">
    <g clip-path="url(#p1bf8de4bdf)">
     <!-- parkinson's disease -->
     <g style="opacity: 0.8" transform="translate(277.179524 689.905805) scale(0.125 -0.125)">
      <defs>
       <path id="DejaVuSans-70" d="M 1159 525 
L 1159 -1331 
L 581 -1331 
L 581 3500 
L 1159 3500 
L 1159 2969 
Q 1341 3281 1617 3432 
Q 1894 3584 2278 3584 
Q 2916 3584 3314 3078 
Q 3713 2572 3713 1747 
Q 3713 922 3314 415 
Q 2916 -91 2278 -91 
Q 1894 -91 1617 61 
Q 1341 213 1159 525 
z
M 3116 1747 
Q 3116 2381 2855 2742 
Q 2594 3103 2138 3103 
Q 1681 3103 1420 2742 
Q 1159 2381 1159 1747 
Q 1159 1113 1420 752 
Q 1681 391 2138 391 
Q 2594 391 2855 752 
Q 3116 1113 3116 1747 
z
" transform="scale(0.015625)"/>
       <path id="DejaVuSans-27" d="M 1147 4666 
L 1147 2931 
L 616 2931 
L 616 4666 
L 1147 4666 
z
" transform="scale(0.015625)"/>
      </defs>
      <use xlink:href="#DejaVuSans-70"/>
      <use xlink:href="#DejaVuSans-61" transform="translate(63.476562 0)"/>
      <use xlink:href="#DejaVuSans-72" transform="translate(124.755859 0)"/>
      <use xlink:href="#DejaVuSans-6b" transform="translate(165.869141 0)"/>
      <use xlink:href="#DejaVuSans-69" transform="translate(223.779297 0)"/>
      <use xlink:href="#DejaVuSans-6e" transform="translate(251.5625 0)"/>
      <use xlink:href="#DejaVuSans-73" transform="translate(314.941406 0)"/>
      <use xlink:href="#DejaVuSans-6f" transform="translate(367.041016 0)"/>
      <use xlink:href="#DejaVuSans-6e" transform="translate(428.222656 0)"/>
      <use xlink:href="#DejaVuSans-27" transform="translate(491.601562 0)"/>
      <use xlink:href="#DejaVuSans-73" transform="translate(519.091797 0)"/>
      <use xlink:href="#DejaVuSans-20" transform="translate(571.191406 0)"/>
      <use xlink:href="#DejaVuSans-64" transform="translate(602.978516 0)"/>
      <use xlink:href="#DejaVuSans-69" transform="translate(666.455078 0)"/>
      <use xlink:href="#DejaVuSans-73" transform="translate(694.238281 0)"/>
      <use xlink:href="#DejaVuSans-65" transform="translate(746.337891 0)"/>
      <use xlink:href="#DejaVuSans-61" transform="translate(807.861328 0)"/>
      <use xlink:href="#DejaVuSans-73" transform="translate(869.140625 0)"/>
      <use xlink:href="#DejaVuSans-65" transform="translate(921.240234 0)"/>
     </g>
    </g>
   </g>
   <g id="text_6">
    <g clip-path="url(#p1bf8de4bdf)">
     <!-- glucocerebrosidase -->
     <g style="opacity: 0.8" transform="translate(529.754924 689.905805) scale(0.125 -0.125)">
      <defs>
       <path id="DejaVuSans-67" d="M 2906 1791 
Q 2906 2416 2648 2759 
Q 2391 3103 1925 3103 
Q 1463 3103 1205 2759 
Q 947 2416 947 1791 
Q 947 1169 1205 825 
Q 1463 481 1925 481 
Q 2391 481 2648 825 
Q 2906 1169 2906 1791 
z
M 3481 434 
Q 3481 -459 3084 -895 
Q 2688 -1331 1869 -1331 
Q 1566 -1331 1297 -1286 
Q 1028 -1241 775 -1147 
L 775 -588 
Q 1028 -725 1275 -790 
Q 1522 -856 1778 -856 
Q 2344 -856 2625 -561 
Q 2906 -266 2906 331 
L 2906 616 
Q 2728 306 2450 153 
Q 2172 0 1784 0 
Q 1141 0 747 490 
Q 353 981 353 1791 
Q 353 2603 747 3093 
Q 1141 3584 1784 3584 
Q 2172 3584 2450 3431 
Q 2728 3278 2906 2969 
L 2906 3500 
L 3481 3500 
L 3481 434 
z
" transform="scale(0.015625)"/>
      </defs>
      <use xlink:href="#DejaVuSans-67"/>
      <use xlink:href="#DejaVuSans-6c" transform="translate(63.476562 0)"/>
      <use xlink:href="#DejaVuSans-75" transform="translate(91.259766 0)"/>
      <use xlink:href="#DejaVuSans-63" transform="translate(154.638672 0)"/>
      <use xlink:href="#DejaVuSans-6f" transform="translate(209.619141 0)"/>
      <use xlink:href="#DejaVuSans-63" transform="translate(270.800781 0)"/>
      <use xlink:href="#DejaVuSans-65" transform="translate(325.78125 0)"/>
      <use xlink:href="#DejaVuSans-72" transform="translate(387.304688 0)"/>
      <use xlink:href="#DejaVuSans-65" transform="translate(426.167969 0)"/>
      <use xlink:href="#DejaVuSans-62" transform="translate(487.691406 0)"/>
      <use xlink:href="#DejaVuSans-72" transform="translate(551.167969 0)"/>
      <use xlink:href="#DejaVuSans-6f" transform="translate(590.03125 0)"/>
      <use xlink:href="#DejaVuSans-73" transform="translate(651.212891 0)"/>
      <use xlink:href="#DejaVuSans-69" transform="translate(703.3125 0)"/>
      <use xlink:href="#DejaVuSans-64" transform="translate(731.095703 0)"/>
      <use xlink:href="#DejaVuSans-61" transform="translate(794.572266 0)"/>
      <use xlink:href="#DejaVuSans-73" transform="translate(855.851562 0)"/>
      <use xlink:href="#DejaVuSans-65" transform="translate(907.951172 0)"/>
     </g>
    </g>
   </g>
   <g id="text_7">
    <g clip-path="url(#p1bf8de4bdf)">
     <!-- gcase -->
     <g style="opacity: 0.8" transform="translate(823.761965 689.905805) scale(0.125 -0.125)">
      <use xlink:href="#DejaVuSans-67"/>
      <use xlink:href="#DejaVuSans-63" transform="translate(63.476562 0)"/>
      <use xlink:href="#DejaVuSans-61" transform="translate(118.457031 0)"/>
      <use xlink:href="#DejaVuSans-73" transform="translate(179.736328 0)"/>
      <use xlink:href="#DejaVuSans-65" transform="translate(231.835938 0)"/>
     </g>
    </g>
   </g>
  </g>
 </g>
 <defs>
  <clipPath id="p1bf8de4bdf">
   <rect x="0" y="0" width="1080" height="720"/>
  </clipPath>
 </defs>
</svg>
