<?xml version="1.0" encoding="utf-8" standalone="no"?>
<!DOCTYPE svg PUBLIC "-//W3C//DTD SVG 1.1//EN"
  "http://www.w3.org/Graphics/SVG/1.1/DTD/svg11.dtd">
<svg xmlns:xlink="http://www.w3.org/1999/xlink" width="1080pt" height="720pt" viewBox="0 0 1080 720" xmlns="http://www.w3.org/2000/svg" version="1.1">
 <metadata>
  <rdf:RDF xmlns:dc="http://purl.org/dc/elements/1.1/" xmlns:cc="http://creativecommons.org/ns#" xmlns:rdf="http://www.w3.org/1999/02/22-rdf-syntax-ns#">
   <cc:Work>
    <dc:type rdf:resource="http://purl.org/dc/dcmitype/StillImage"/>
    <dc:date>2025-06-23T10:54:54.237176</dc:date>
    <dc:format>image/svg+xml</dc:format>
    <dc:creator>
     <cc:Agent>
      <dc:title>Matplotlib v3.10.3, https://matplotlib.org/</dc:title>
     </cc:Agent>
    </dc:creator>
   </cc:Work>
  </rdf:RDF>
 </metadata>
 <defs>
  <style type="text/css">*{stroke-linejoin: round; stroke-linecap: butt}</style>
 </defs>
 <g id="figure_1">
  <g id="patch_1">
   <path d="M 0 720 
L 1080 720 
L 1080 0 
L 0 0 
z
" style="fill: #ffffff"/>
  </g>
  <g id="axes_1">
   <g id="patch_2">
    <path d="M 125.34329 360 
Q 157.474044 360 188.486764 360 
" clip-path="url(#pb054234564)" style="fill: none; stroke: #808080; stroke-opacity: 0.8; stroke-linecap: round"/>
    <path d="M 178.486764 355 
L 188.486764 360 
L 178.486764 365 
z
" clip-path="url(#pb054234564)" style="fill: #808080; fill-opacity: 0.8; stroke: #808080; stroke-opacity: 0.8; stroke-linecap: round"/>
   </g>
   <g id="patch_3">
    <path d="M 252.852145 360 
Q 284.982899 360 315.995619 360 
" clip-path="url(#pb054234564)" style="fill: none; stroke: #808080; stroke-opacity: 0.8; stroke-linecap: round"/>
    <path d="M 305.995619 355 
L 315.995619 360 
L 305.995619 365 
z
" clip-path="url(#pb054234564)" style="fill: #808080; fill-opacity: 0.8; stroke: #808080; stroke-opacity: 0.8; stroke-linecap: round"/>
   </g>
   <g id="patch_4">
    <path d="M 380.361 360 
Q 412.491754 360 443.504474 360 
" clip-path="url(#pb054234564)" style="fill: none; stroke: #808080; stroke-opacity: 0.8; stroke-linecap: round"/>
    <path d="M 433.504474 355 
L 443.504474 360 
L 433.504474 365 
z
" clip-path="url(#pb054234564)" style="fill: #808080; fill-opacity: 0.8; stroke: #808080; stroke-opacity: 0.8; stroke-linecap: round"/>
   </g>
   <g id="patch_5">
    <path d="M 507.869854 360 
Q 540.000609 360 571.013329 360 
" clip-path="url(#pb054234564)" style="fill: none; stroke: #808080; stroke-opacity: 0.8; stroke-linecap: round"/>
    <path d="M 561.013329 355 
L 571.013329 360 
L 561.013329 365 
z
" clip-path="url(#pb054234564)" style="fill: #808080; fill-opacity: 0.8; stroke: #808080; stroke-opacity: 0.8; stroke-linecap: round"/>
   </g>
   <g id="patch_6">
    <path d="M 635.378709 360 
Q 667.509463 360 698.522184 360 
" clip-path="url(#pb054234564)" style="fill: none; stroke: #808080; stroke-opacity: 0.8; stroke-linecap: round"/>
    <path d="M 688.522184 355 
L 698.522184 360 
L 688.522184 365 
z
" clip-path="url(#pb054234564)" style="fill: #808080; fill-opacity: 0.8; stroke: #808080; stroke-opacity: 0.8; stroke-linecap: round"/>
   </g>
   <g id="patch_7">
    <path d="M 762.887564 360 
Q 795.018318 360 826.031038 360 
" clip-path="url(#pb054234564)" style="fill: none; stroke: #808080; stroke-opacity: 0.8; stroke-linecap: round"/>
    <path d="M 816.031038 355 
L 826.031038 360 
L 816.031038 365 
z
" clip-path="url(#pb054234564)" style="fill: #808080; fill-opacity: 0.8; stroke: #808080; stroke-opacity: 0.8; stroke-linecap: round"/>
   </g>
   <g id="patch_8">
    <path d="M 890.396419 360 
Q 922.527173 360 953.539893 360 
" clip-path="url(#pb054234564)" style="fill: none; stroke: #808080; stroke-opacity: 0.8; stroke-linecap: round"/>
    <path d="M 943.539893 355 
L 953.539893 360 
L 943.539893 365 
z
" clip-path="url(#pb054234564)" style="fill: #808080; fill-opacity: 0.8; stroke: #808080; stroke-opacity: 0.8; stroke-linecap: round"/>
   </g>
   <g id="text_1">
    <g id="patch_9">
     <path d="M 127.87789 369.798828 
L 187.069297 369.798828 
Q 190.819297 369.798828 190.819297 366.048828 
L 190.819297 353.951172 
Q 190.819297 350.201172 187.069297 350.201172 
L 127.87789 350.201172 
Q 124.12789 350.201172 124.12789 353.951172 
L 124.12789 366.048828 
Q 124.12789 369.798828 127.87789 369.798828 
z
" clip-path="url(#pb054234564)" style="fill: #ffffff; stroke: #ffffff; stroke-linejoin: miter"/>
    </g>
    <g clip-path="url(#pb054234564)">
     <!-- increases -->
     <g style="fill: #ff0000" transform="translate(127.87789 363.449219) scale(0.125 -0.125)">
      <defs>
       <path id="DejaVuSans-69" d="M 603 3500 
L 1178 3500 
L 1178 0 
L 603 0 
L 603 3500 
z
M 603 4863 
L 1178 4863 
L 1178 4134 
L 603 4134 
L 603 4863 
z
" transform="scale(0.015625)"/>
       <path id="DejaVuSans-6e" d="M 3513 2113 
L 3513 0 
L 2938 0 
L 2938 2094 
Q 2938 2591 2744 2837 
Q 2550 3084 2163 3084 
Q 1697 3084 1428 2787 
Q 1159 2491 1159 1978 
L 1159 0 
L 581 0 
L 581 3500 
L 1159 3500 
L 1159 2956 
Q 1366 3272 1645 3428 
Q 1925 3584 2291 3584 
Q 2894 3584 3203 3211 
Q 3513 2838 3513 2113 
z
" transform="scale(0.015625)"/>
       <path id="DejaVuSans-63" d="M 3122 3366 
L 3122 2828 
Q 2878 2963 2633 3030 
Q 2388 3097 2138 3097 
Q 1578 3097 1268 2742 
Q 959 2388 959 1747 
Q 959 1106 1268 751 
Q 1578 397 2138 397 
Q 2388 397 2633 464 
Q 2878 531 3122 666 
L 3122 134 
Q 2881 22 2623 -34 
Q 2366 -91 2075 -91 
Q 1284 -91 818 406 
Q 353 903 353 1747 
Q 353 2603 823 3093 
Q 1294 3584 2113 3584 
Q 2378 3584 2631 3529 
Q 2884 3475 3122 3366 
z
" transform="scale(0.015625)"/>
       <path id="DejaVuSans-72" d="M 2631 2963 
Q 2534 3019 2420 3045 
Q 2306 3072 2169 3072 
Q 1681 3072 1420 2755 
Q 1159 2438 1159 1844 
L 1159 0 
L 581 0 
L 581 3500 
L 1159 3500 
L 1159 2956 
Q 1341 3275 1631 3429 
Q 1922 3584 2338 3584 
Q 2397 3584 2469 3576 
Q 2541 3569 2628 3553 
L 2631 2963 
z
" transform="scale(0.015625)"/>
       <path id="DejaVuSans-65" d="M 3597 1894 
L 3597 1613 
L 953 1613 
Q 991 1019 1311 708 
Q 1631 397 2203 397 
Q 2534 397 2845 478 
Q 3156 559 3463 722 
L 3463 178 
Q 3153 47 2828 -22 
Q 2503 -91 2169 -91 
Q 1331 -91 842 396 
Q 353 884 353 1716 
Q 353 2575 817 3079 
Q 1281 3584 2069 3584 
Q 2775 3584 3186 3129 
Q 3597 2675 3597 1894 
z
M 3022 2063 
Q 3016 2534 2758 2815 
Q 2500 3097 2075 3097 
Q 1594 3097 1305 2825 
Q 1016 2553 972 2059 
L 3022 2063 
z
" transform="scale(0.015625)"/>
       <path id="DejaVuSans-61" d="M 2194 1759 
Q 1497 1759 1228 1600 
Q 959 1441 959 1056 
Q 959 750 1161 570 
Q 1363 391 1709 391 
Q 2188 391 2477 730 
Q 2766 1069 2766 1631 
L 2766 1759 
L 2194 1759 
z
M 3341 1997 
L 3341 0 
L 2766 0 
L 2766 531 
Q 2569 213 2275 61 
Q 1981 -91 1556 -91 
Q 1019 -91 701 211 
Q 384 513 384 1019 
Q 384 1609 779 1909 
Q 1175 2209 1959 2209 
L 2766 2209 
L 2766 2266 
Q 2766 2663 2505 2880 
Q 2244 3097 1772 3097 
Q 1472 3097 1187 3025 
Q 903 2953 641 2809 
L 641 3341 
Q 956 3463 1253 3523 
Q 1550 3584 1831 3584 
Q 2591 3584 2966 3190 
Q 3341 2797 3341 1997 
z
" transform="scale(0.015625)"/>
       <path id="DejaVuSans-73" d="M 2834 3397 
L 2834 2853 
Q 2591 2978 2328 3040 
Q 2066 3103 1784 3103 
Q 1356 3103 1142 2972 
Q 928 2841 928 2578 
Q 928 2378 1081 2264 
Q 1234 2150 1697 2047 
L 1894 2003 
Q 2506 1872 2764 1633 
Q 3022 1394 3022 966 
Q 3022 478 2636 193 
Q 2250 -91 1575 -91 
Q 1294 -91 989 -36 
Q 684 19 347 128 
L 347 722 
Q 666 556 975 473 
Q 1284 391 1588 391 
Q 1994 391 2212 530 
Q 2431 669 2431 922 
Q 2431 1156 2273 1281 
Q 2116 1406 1581 1522 
L 1381 1569 
Q 847 1681 609 1914 
Q 372 2147 372 2553 
Q 372 3047 722 3315 
Q 1072 3584 1716 3584 
Q 2034 3584 2315 3537 
Q 2597 3491 2834 3397 
z
" transform="scale(0.015625)"/>
      </defs>
      <use xlink:href="#DejaVuSans-69"/>
      <use xlink:href="#DejaVuSans-6e" transform="translate(27.783203 0)"/>
      <use xlink:href="#DejaVuSans-63" transform="translate(91.162109 0)"/>
      <use xlink:href="#DejaVuSans-72" transform="translate(146.142578 0)"/>
      <use xlink:href="#DejaVuSans-65" transform="translate(185.005859 0)"/>
      <use xlink:href="#DejaVuSans-61" transform="translate(246.529297 0)"/>
      <use xlink:href="#DejaVuSans-73" transform="translate(307.808594 0)"/>
      <use xlink:href="#DejaVuSans-65" transform="translate(359.908203 0)"/>
      <use xlink:href="#DejaVuSans-73" transform="translate(421.431641 0)"/>
     </g>
    </g>
   </g>
   <g id="text_2">
    <g id="patch_10">
     <path d="M 234.920925 376.797461 
L 335.043972 376.797461 
Q 338.793972 376.797461 338.793972 373.047461 
L 338.793972 346.952539 
Q 338.793972 343.202539 335.043972 343.202539 
L 234.920925 343.202539 
Q 231.170925 343.202539 231.170925 346.952539 
L 231.170925 373.047461 
Q 231.170925 376.797461 234.920925 376.797461 
z
" clip-path="url(#pb054234564)" style="fill: #ffffff; stroke: #ffffff; stroke-linejoin: miter"/>
    </g>
    <g clip-path="url(#pb054234564)">
     <!-- enhances effect -->
     <g style="fill: #ff0000" transform="translate(234.920925 356.450586) scale(0.125 -0.125)">
      <defs>
       <path id="DejaVuSans-68" d="M 3513 2113 
L 3513 0 
L 2938 0 
L 2938 2094 
Q 2938 2591 2744 2837 
Q 2550 3084 2163 3084 
Q 1697 3084 1428 2787 
Q 1159 2491 1159 1978 
L 1159 0 
L 581 0 
L 581 4863 
L 1159 4863 
L 1159 2956 
Q 1366 3272 1645 3428 
Q 1925 3584 2291 3584 
Q 2894 3584 3203 3211 
Q 3513 2838 3513 2113 
z
" transform="scale(0.015625)"/>
       <path id="DejaVuSans-20" transform="scale(0.015625)"/>
       <path id="DejaVuSans-66" d="M 2375 4863 
L 2375 4384 
L 1825 4384 
Q 1516 4384 1395 4259 
Q 1275 4134 1275 3809 
L 1275 3500 
L 2222 3500 
L 2222 3053 
L 1275 3053 
L 1275 0 
L 697 0 
L 697 3053 
L 147 3053 
L 147 3500 
L 697 3500 
L 697 3744 
Q 697 4328 969 4595 
Q 1241 4863 1831 4863 
L 2375 4863 
z
" transform="scale(0.015625)"/>
       <path id="DejaVuSans-74" d="M 1172 4494 
L 1172 3500 
L 2356 3500 
L 2356 3053 
L 1172 3053 
L 1172 1153 
Q 1172 725 1289 603 
Q 1406 481 1766 481 
L 2356 481 
L 2356 0 
L 1766 0 
Q 1100 0 847 248 
Q 594 497 594 1153 
L 594 3053 
L 172 3053 
L 172 3500 
L 594 3500 
L 594 4494 
L 1172 4494 
z
" transform="scale(0.015625)"/>
      </defs>
      <use xlink:href="#DejaVuSans-65"/>
      <use xlink:href="#DejaVuSans-6e" transform="translate(61.523438 0)"/>
      <use xlink:href="#DejaVuSans-68" transform="translate(124.902344 0)"/>
      <use xlink:href="#DejaVuSans-61" transform="translate(188.28125 0)"/>
      <use xlink:href="#DejaVuSans-6e" transform="translate(249.560547 0)"/>
      <use xlink:href="#DejaVuSans-63" transform="translate(312.939453 0)"/>
      <use xlink:href="#DejaVuSans-65" transform="translate(367.919922 0)"/>
      <use xlink:href="#DejaVuSans-73" transform="translate(429.443359 0)"/>
      <use xlink:href="#DejaVuSans-20" transform="translate(481.542969 0)"/>
      <use xlink:href="#DejaVuSans-65" transform="translate(513.330078 0)"/>
      <use xlink:href="#DejaVuSans-66" transform="translate(574.853516 0)"/>
      <use xlink:href="#DejaVuSans-66" transform="translate(610.058594 0)"/>
      <use xlink:href="#DejaVuSans-65" transform="translate(645.263672 0)"/>
      <use xlink:href="#DejaVuSans-63" transform="translate(706.787109 0)"/>
      <use xlink:href="#DejaVuSans-74" transform="translate(761.767578 0)"/>
     </g>
    </g>
    <g clip-path="url(#pb054234564)">
     <!-- on -->
     <g style="fill: #ff0000" transform="translate(277.197292 370.447852) scale(0.125 -0.125)">
      <defs>
       <path id="DejaVuSans-6f" d="M 1959 3097 
Q 1497 3097 1228 2736 
Q 959 2375 959 1747 
Q 959 1119 1226 758 
Q 1494 397 1959 397 
Q 2419 397 2687 759 
Q 2956 1122 2956 1747 
Q 2956 2369 2687 2733 
Q 2419 3097 1959 3097 
z
M 1959 3584 
Q 2709 3584 3137 3096 
Q 3566 2609 3566 1747 
Q 3566 888 3137 398 
Q 2709 -91 1959 -91 
Q 1206 -91 779 398 
Q 353 888 353 1747 
Q 353 2609 779 3096 
Q 1206 3584 1959 3584 
z
" transform="scale(0.015625)"/>
      </defs>
      <use xlink:href="#DejaVuSans-6f"/>
      <use xlink:href="#DejaVuSans-6e" transform="translate(61.181641 0)"/>
     </g>
    </g>
   </g>
   <g id="text_3">
    <g id="patch_11">
     <path d="M 366.51767 376.797461 
L 458.464936 376.797461 
Q 462.214936 376.797461 462.214936 373.047461 
L 462.214936 346.952539 
Q 462.214936 343.202539 458.464936 343.202539 
L 366.51767 343.202539 
Q 362.76767 343.202539 362.76767 346.952539 
L 362.76767 373.047461 
Q 362.76767 376.797461 366.51767 376.797461 
z
" clip-path="url(#pb054234564)" style="fill: #ffffff; stroke: #ffffff; stroke-linejoin: miter"/>
    </g>
    <g clip-path="url(#pb054234564)">
     <!-- has unique -->
     <g style="fill: #ff0000" transform="translate(378.025483 356.450586) scale(0.125 -0.125)">
      <defs>
       <path id="DejaVuSans-75" d="M 544 1381 
L 544 3500 
L 1119 3500 
L 1119 1403 
Q 1119 906 1312 657 
Q 1506 409 1894 409 
Q 2359 409 2629 706 
Q 2900 1003 2900 1516 
L 2900 3500 
L 3475 3500 
L 3475 0 
L 2900 0 
L 2900 538 
Q 2691 219 2414 64 
Q 2138 -91 1772 -91 
Q 1169 -91 856 284 
Q 544 659 544 1381 
z
M 1991 3584 
L 1991 3584 
z
" transform="scale(0.015625)"/>
       <path id="DejaVuSans-71" d="M 947 1747 
Q 947 1113 1208 752 
Q 1469 391 1925 391 
Q 2381 391 2643 752 
Q 2906 1113 2906 1747 
Q 2906 2381 2643 2742 
Q 2381 3103 1925 3103 
Q 1469 3103 1208 2742 
Q 947 2381 947 1747 
z
M 2906 525 
Q 2725 213 2448 61 
Q 2172 -91 1784 -91 
Q 1150 -91 751 415 
Q 353 922 353 1747 
Q 353 2572 751 3078 
Q 1150 3584 1784 3584 
Q 2172 3584 2448 3432 
Q 2725 3281 2906 2969 
L 2906 3500 
L 3481 3500 
L 3481 -1331 
L 2906 -1331 
L 2906 525 
z
" transform="scale(0.015625)"/>
      </defs>
      <use xlink:href="#DejaVuSans-68"/>
      <use xlink:href="#DejaVuSans-61" transform="translate(63.378906 0)"/>
      <use xlink:href="#DejaVuSans-73" transform="translate(124.658203 0)"/>
      <use xlink:href="#DejaVuSans-20" transform="translate(176.757812 0)"/>
      <use xlink:href="#DejaVuSans-75" transform="translate(208.544922 0)"/>
      <use xlink:href="#DejaVuSans-6e" transform="translate(271.923828 0)"/>
      <use xlink:href="#DejaVuSans-69" transform="translate(335.302734 0)"/>
      <use xlink:href="#DejaVuSans-71" transform="translate(363.085938 0)"/>
      <use xlink:href="#DejaVuSans-75" transform="translate(426.5625 0)"/>
      <use xlink:href="#DejaVuSans-65" transform="translate(489.941406 0)"/>
     </g>
    </g>
    <g clip-path="url(#pb054234564)">
     <!-- mechanism on -->
     <g style="fill: #ff0000" transform="translate(366.51767 370.447852) scale(0.125 -0.125)">
      <defs>
       <path id="DejaVuSans-6d" d="M 3328 2828 
Q 3544 3216 3844 3400 
Q 4144 3584 4550 3584 
Q 5097 3584 5394 3201 
Q 5691 2819 5691 2113 
L 5691 0 
L 5113 0 
L 5113 2094 
Q 5113 2597 4934 2840 
Q 4756 3084 4391 3084 
Q 3944 3084 3684 2787 
Q 3425 2491 3425 1978 
L 3425 0 
L 2847 0 
L 2847 2094 
Q 2847 2600 2669 2842 
Q 2491 3084 2119 3084 
Q 1678 3084 1418 2786 
Q 1159 2488 1159 1978 
L 1159 0 
L 581 0 
L 581 3500 
L 1159 3500 
L 1159 2956 
Q 1356 3278 1631 3431 
Q 1906 3584 2284 3584 
Q 2666 3584 2933 3390 
Q 3200 3197 3328 2828 
z
" transform="scale(0.015625)"/>
      </defs>
      <use xlink:href="#DejaVuSans-6d"/>
      <use xlink:href="#DejaVuSans-65" transform="translate(97.412109 0)"/>
      <use xlink:href="#DejaVuSans-63" transform="translate(158.935547 0)"/>
      <use xlink:href="#DejaVuSans-68" transform="translate(213.916016 0)"/>
      <use xlink:href="#DejaVuSans-61" transform="translate(277.294922 0)"/>
      <use xlink:href="#DejaVuSans-6e" transform="translate(338.574219 0)"/>
      <use xlink:href="#DejaVuSans-69" transform="translate(401.953125 0)"/>
      <use xlink:href="#DejaVuSans-73" transform="translate(429.736328 0)"/>
      <use xlink:href="#DejaVuSans-6d" transform="translate(481.835938 0)"/>
      <use xlink:href="#DejaVuSans-20" transform="translate(579.248047 0)"/>
      <use xlink:href="#DejaVuSans-6f" transform="translate(611.035156 0)"/>
      <use xlink:href="#DejaVuSans-6e" transform="translate(672.216797 0)"/>
     </g>
    </g>
   </g>
   <g id="text_4">
    <g id="patch_12">
     <path d="M 522.933752 376.797461 
L 557.066564 376.797461 
Q 560.816564 376.797461 560.816564 373.047461 
L 560.816564 346.952539 
Q 560.816564 343.202539 557.066564 343.202539 
L 522.933752 343.202539 
Q 519.183752 343.202539 519.183752 346.952539 
L 519.183752 373.047461 
Q 519.183752 376.797461 522.933752 376.797461 
z
" clip-path="url(#pb054234564)" style="fill: #ffffff; stroke: #ffffff; stroke-linejoin: miter"/>
    </g>
    <g clip-path="url(#pb054234564)">
     <!-- has a -->
     <g style="fill: #ff0000" transform="translate(523.136877 356.450586) scale(0.125 -0.125)">
      <use xlink:href="#DejaVuSans-68"/>
      <use xlink:href="#DejaVuSans-61" transform="translate(63.378906 0)"/>
      <use xlink:href="#DejaVuSans-73" transform="translate(124.658203 0)"/>
      <use xlink:href="#DejaVuSans-20" transform="translate(176.757812 0)"/>
      <use xlink:href="#DejaVuSans-61" transform="translate(208.544922 0)"/>
     </g>
    </g>
    <g clip-path="url(#pb054234564)">
     <!-- novel -->
     <g style="fill: #ff0000" transform="translate(522.933752 370.447852) scale(0.125 -0.125)">
      <defs>
       <path id="DejaVuSans-76" d="M 191 3500 
L 800 3500 
L 1894 563 
L 2988 3500 
L 3597 3500 
L 2284 0 
L 1503 0 
L 191 3500 
z
" transform="scale(0.015625)"/>
       <path id="DejaVuSans-6c" d="M 603 4863 
L 1178 4863 
L 1178 0 
L 603 0 
L 603 4863 
z
" transform="scale(0.015625)"/>
      </defs>
      <use xlink:href="#DejaVuSans-6e"/>
      <use xlink:href="#DejaVuSans-6f" transform="translate(63.378906 0)"/>
      <use xlink:href="#DejaVuSans-76" transform="translate(124.560547 0)"/>
      <use xlink:href="#DejaVuSans-65" transform="translate(183.740234 0)"/>
      <use xlink:href="#DejaVuSans-6c" transform="translate(245.263672 0)"/>
     </g>
    </g>
   </g>
   <g id="text_5">
    <g id="patch_13">
     <path d="M 645.53538 376.797461 
L 689.482645 376.797461 
Q 693.232645 376.797461 693.232645 373.047461 
L 693.232645 346.952539 
Q 693.232645 343.202539 689.482645 343.202539 
L 645.53538 343.202539 
Q 641.78538 343.202539 641.78538 346.952539 
L 641.78538 373.047461 
Q 641.78538 376.797461 645.53538 376.797461 
z
" clip-path="url(#pb054234564)" style="fill: #ffffff; stroke: #ffffff; stroke-linejoin: miter"/>
    </g>
    <g clip-path="url(#pb054234564)">
     <!-- is a -->
     <g style="fill: #ff0000" transform="translate(656.700419 356.450586) scale(0.125 -0.125)">
      <use xlink:href="#DejaVuSans-69"/>
      <use xlink:href="#DejaVuSans-73" transform="translate(27.783203 0)"/>
      <use xlink:href="#DejaVuSans-20" transform="translate(79.882812 0)"/>
      <use xlink:href="#DejaVuSans-61" transform="translate(111.669922 0)"/>
     </g>
    </g>
    <g clip-path="url(#pb054234564)">
     <!-- type of -->
     <g style="fill: #ff0000" transform="translate(645.53538 370.447852) scale(0.125 -0.125)">
      <defs>
       <path id="DejaVuSans-79" d="M 2059 -325 
Q 1816 -950 1584 -1140 
Q 1353 -1331 966 -1331 
L 506 -1331 
L 506 -850 
L 844 -850 
Q 1081 -850 1212 -737 
Q 1344 -625 1503 -206 
L 1606 56 
L 191 3500 
L 800 3500 
L 1894 763 
L 2988 3500 
L 3597 3500 
L 2059 -325 
z
" transform="scale(0.015625)"/>
       <path id="DejaVuSans-70" d="M 1159 525 
L 1159 -1331 
L 581 -1331 
L 581 3500 
L 1159 3500 
L 1159 2969 
Q 1341 3281 1617 3432 
Q 1894 3584 2278 3584 
Q 2916 3584 3314 3078 
Q 3713 2572 3713 1747 
Q 3713 922 3314 415 
Q 2916 -91 2278 -91 
Q 1894 -91 1617 61 
Q 1341 213 1159 525 
z
M 3116 1747 
Q 3116 2381 2855 2742 
Q 2594 3103 2138 3103 
Q 1681 3103 1420 2742 
Q 1159 2381 1159 1747 
Q 1159 1113 1420 752 
Q 1681 391 2138 391 
Q 2594 391 2855 752 
Q 3116 1113 3116 1747 
z
" transform="scale(0.015625)"/>
      </defs>
      <use xlink:href="#DejaVuSans-74"/>
      <use xlink:href="#DejaVuSans-79" transform="translate(39.208984 0)"/>
      <use xlink:href="#DejaVuSans-70" transform="translate(98.388672 0)"/>
      <use xlink:href="#DejaVuSans-65" transform="translate(161.865234 0)"/>
      <use xlink:href="#DejaVuSans-20" transform="translate(223.388672 0)"/>
      <use xlink:href="#DejaVuSans-6f" transform="translate(255.175781 0)"/>
      <use xlink:href="#DejaVuSans-66" transform="translate(316.357422 0)"/>
     </g>
    </g>
   </g>
   <g id="text_6">
    <g id="patch_14">
     <path d="M 773.044235 376.797461 
L 816.9915 376.797461 
Q 820.7415 376.797461 820.7415 373.047461 
L 820.7415 346.952539 
Q 820.7415 343.202539 816.9915 343.202539 
L 773.044235 343.202539 
Q 769.294235 343.202539 769.294235 346.952539 
L 769.294235 373.047461 
Q 769.294235 376.797461 773.044235 376.797461 
z
" clip-path="url(#pb054234564)" style="fill: #ffffff; stroke: #ffffff; stroke-linejoin: miter"/>
    </g>
    <g clip-path="url(#pb054234564)">
     <!-- is a -->
     <g style="fill: #ff0000" transform="translate(784.209274 356.450586) scale(0.125 -0.125)">
      <use xlink:href="#DejaVuSans-69"/>
      <use xlink:href="#DejaVuSans-73" transform="translate(27.783203 0)"/>
      <use xlink:href="#DejaVuSans-20" transform="translate(79.882812 0)"/>
      <use xlink:href="#DejaVuSans-61" transform="translate(111.669922 0)"/>
     </g>
    </g>
    <g clip-path="url(#pb054234564)">
     <!-- type of -->
     <g style="fill: #ff0000" transform="translate(773.044235 370.447852) scale(0.125 -0.125)">
      <use xlink:href="#DejaVuSans-74"/>
      <use xlink:href="#DejaVuSans-79" transform="translate(39.208984 0)"/>
      <use xlink:href="#DejaVuSans-70" transform="translate(98.388672 0)"/>
      <use xlink:href="#DejaVuSans-65" transform="translate(161.865234 0)"/>
      <use xlink:href="#DejaVuSans-20" transform="translate(223.388672 0)"/>
      <use xlink:href="#DejaVuSans-6f" transform="translate(255.175781 0)"/>
      <use xlink:href="#DejaVuSans-66" transform="translate(316.357422 0)"/>
     </g>
    </g>
   </g>
   <g id="PathCollection_1">
    <defs>
     <path id="ma806370c21" d="M 0 31.622777 
C 8.386458 31.622777 16.430558 28.290801 22.36068 22.36068 
C 28.290801 16.430558 31.622777 8.386458 31.622777 0 
C 31.622777 -8.386458 28.290801 -16.430558 22.36068 -22.36068 
C 16.430558 -28.290801 8.386458 -31.622777 0 -31.622777 
C -8.386458 -31.622777 -16.430558 -28.290801 -22.36068 -22.36068 
C -28.290801 -16.430558 -31.622777 -8.386458 -31.622777 0 
C -31.622777 8.386458 -28.290801 16.430558 -22.36068 22.36068 
C -16.430558 28.290801 -8.386458 31.622777 0 31.622777 
z
" style="stroke: #add8e6; stroke-opacity: 0.8; stroke-width: 1.25"/>
    </defs>
    <g clip-path="url(#pb054234564)">
     <use xlink:href="#ma806370c21" x="93.719008" y="360" style="fill: #add8e6; fill-opacity: 0.8; stroke: #add8e6; stroke-opacity: 0.8; stroke-width: 1.25"/>
     <use xlink:href="#ma806370c21" x="221.227863" y="360" style="fill: #add8e6; fill-opacity: 0.8; stroke: #add8e6; stroke-opacity: 0.8; stroke-width: 1.25"/>
     <use xlink:href="#ma806370c21" x="348.736718" y="360" style="fill: #add8e6; fill-opacity: 0.8; stroke: #add8e6; stroke-opacity: 0.8; stroke-width: 1.25"/>
     <use xlink:href="#ma806370c21" x="476.245573" y="360" style="fill: #add8e6; fill-opacity: 0.8; stroke: #add8e6; stroke-opacity: 0.8; stroke-width: 1.25"/>
     <use xlink:href="#ma806370c21" x="603.754427" y="360" style="fill: #add8e6; fill-opacity: 0.8; stroke: #add8e6; stroke-opacity: 0.8; stroke-width: 1.25"/>
     <use xlink:href="#ma806370c21" x="731.263282" y="360" style="fill: #add8e6; fill-opacity: 0.8; stroke: #add8e6; stroke-opacity: 0.8; stroke-width: 1.25"/>
     <use xlink:href="#ma806370c21" x="858.772137" y="360" style="fill: #add8e6; fill-opacity: 0.8; stroke: #add8e6; stroke-opacity: 0.8; stroke-width: 1.25"/>
     <use xlink:href="#ma806370c21" x="986.280992" y="360" style="fill: #add8e6; fill-opacity: 0.8; stroke: #add8e6; stroke-opacity: 0.8; stroke-width: 1.25"/>
    </g>
   </g>
   <g id="text_7">
    <g clip-path="url(#pb054234564)">
     <!-- ambroxol -->
     <g style="opacity: 0.8" transform="translate(64.711196 363.449219) scale(0.125 -0.125)">
      <defs>
       <path id="DejaVuSans-62" d="M 3116 1747 
Q 3116 2381 2855 2742 
Q 2594 3103 2138 3103 
Q 1681 3103 1420 2742 
Q 1159 2381 1159 1747 
Q 1159 1113 1420 752 
Q 1681 391 2138 391 
Q 2594 391 2855 752 
Q 3116 1113 3116 1747 
z
M 1159 2969 
Q 1341 3281 1617 3432 
Q 1894 3584 2278 3584 
Q 2916 3584 3314 3078 
Q 3713 2572 3713 1747 
Q 3713 922 3314 415 
Q 2916 -91 2278 -91 
Q 1894 -91 1617 61 
Q 1341 213 1159 525 
L 1159 0 
L 581 0 
L 581 4863 
L 1159 4863 
L 1159 2969 
z
" transform="scale(0.015625)"/>
       <path id="DejaVuSans-78" d="M 3513 3500 
L 2247 1797 
L 3578 0 
L 2900 0 
L 1881 1375 
L 863 0 
L 184 0 
L 1544 1831 
L 300 3500 
L 978 3500 
L 1906 2253 
L 2834 3500 
L 3513 3500 
z
" transform="scale(0.015625)"/>
      </defs>
      <use xlink:href="#DejaVuSans-61"/>
      <use xlink:href="#DejaVuSans-6d" transform="translate(61.279297 0)"/>
      <use xlink:href="#DejaVuSans-62" transform="translate(158.691406 0)"/>
      <use xlink:href="#DejaVuSans-72" transform="translate(222.167969 0)"/>
      <use xlink:href="#DejaVuSans-6f" transform="translate(261.03125 0)"/>
      <use xlink:href="#DejaVuSans-78" transform="translate(319.087891 0)"/>
      <use xlink:href="#DejaVuSans-6f" transform="translate(375.142578 0)"/>
      <use xlink:href="#DejaVuSans-6c" transform="translate(436.324219 0)"/>
     </g>
    </g>
   </g>
   <g id="text_8">
    <g clip-path="url(#pb054234564)">
     <!-- glucocerebrosidase (gcase) activity -->
     <g style="opacity: 0.8" transform="translate(110.409504 363.449219) scale(0.125 -0.125)">
      <defs>
       <path id="DejaVuSans-67" d="M 2906 1791 
Q 2906 2416 2648 2759 
Q 2391 3103 1925 3103 
Q 1463 3103 1205 2759 
Q 947 2416 947 1791 
Q 947 1169 1205 825 
Q 1463 481 1925 481 
Q 2391 481 2648 825 
Q 2906 1169 2906 1791 
z
M 3481 434 
Q 3481 -459 3084 -895 
Q 2688 -1331 1869 -1331 
Q 1566 -1331 1297 -1286 
Q 1028 -1241 775 -1147 
L 775 -588 
Q 1028 -725 1275 -790 
Q 1522 -856 1778 -856 
Q 2344 -856 2625 -561 
Q 2906 -266 2906 331 
L 2906 616 
Q 2728 306 2450 153 
Q 2172 0 1784 0 
Q 1141 0 747 490 
Q 353 981 353 1791 
Q 353 2603 747 3093 
Q 1141 3584 1784 3584 
Q 2172 3584 2450 3431 
Q 2728 3278 2906 2969 
L 2906 3500 
L 3481 3500 
L 3481 434 
z
" transform="scale(0.015625)"/>
       <path id="DejaVuSans-64" d="M 2906 2969 
L 2906 4863 
L 3481 4863 
L 3481 0 
L 2906 0 
L 2906 525 
Q 2725 213 2448 61 
Q 2172 -91 1784 -91 
Q 1150 -91 751 415 
Q 353 922 353 1747 
Q 353 2572 751 3078 
Q 1150 3584 1784 3584 
Q 2172 3584 2448 3432 
Q 2725 3281 2906 2969 
z
M 947 1747 
Q 947 1113 1208 752 
Q 1469 391 1925 391 
Q 2381 391 2643 752 
Q 2906 1113 2906 1747 
Q 2906 2381 2643 2742 
Q 2381 3103 1925 3103 
Q 1469 3103 1208 2742 
Q 947 2381 947 1747 
z
" transform="scale(0.015625)"/>
       <path id="DejaVuSans-28" d="M 1984 4856 
Q 1566 4138 1362 3434 
Q 1159 2731 1159 2009 
Q 1159 1288 1364 580 
Q 1569 -128 1984 -844 
L 1484 -844 
Q 1016 -109 783 600 
Q 550 1309 550 2009 
Q 550 2706 781 3412 
Q 1013 4119 1484 4856 
L 1984 4856 
z
" transform="scale(0.015625)"/>
       <path id="DejaVuSans-29" d="M 513 4856 
L 1013 4856 
Q 1481 4119 1714 3412 
Q 1947 2706 1947 2009 
Q 1947 1309 1714 600 
Q 1481 -109 1013 -844 
L 513 -844 
Q 928 -128 1133 580 
Q 1338 1288 1338 2009 
Q 1338 2731 1133 3434 
Q 928 4138 513 4856 
z
" transform="scale(0.015625)"/>
      </defs>
      <use xlink:href="#DejaVuSans-67"/>
      <use xlink:href="#DejaVuSans-6c" transform="translate(63.476562 0)"/>
      <use xlink:href="#DejaVuSans-75" transform="translate(91.259766 0)"/>
      <use xlink:href="#DejaVuSans-63" transform="translate(154.638672 0)"/>
      <use xlink:href="#DejaVuSans-6f" transform="translate(209.619141 0)"/>
      <use xlink:href="#DejaVuSans-63" transform="translate(270.800781 0)"/>
      <use xlink:href="#DejaVuSans-65" transform="translate(325.78125 0)"/>
      <use xlink:href="#DejaVuSans-72" transform="translate(387.304688 0)"/>
      <use xlink:href="#DejaVuSans-65" transform="translate(426.167969 0)"/>
      <use xlink:href="#DejaVuSans-62" transform="translate(487.691406 0)"/>
      <use xlink:href="#DejaVuSans-72" transform="translate(551.167969 0)"/>
      <use xlink:href="#DejaVuSans-6f" transform="translate(590.03125 0)"/>
      <use xlink:href="#DejaVuSans-73" transform="translate(651.212891 0)"/>
      <use xlink:href="#DejaVuSans-69" transform="translate(703.3125 0)"/>
      <use xlink:href="#DejaVuSans-64" transform="translate(731.095703 0)"/>
      <use xlink:href="#DejaVuSans-61" transform="translate(794.572266 0)"/>
      <use xlink:href="#DejaVuSans-73" transform="translate(855.851562 0)"/>
      <use xlink:href="#DejaVuSans-65" transform="translate(907.951172 0)"/>
      <use xlink:href="#DejaVuSans-20" transform="translate(969.474609 0)"/>
      <use xlink:href="#DejaVuSans-28" transform="translate(1001.261719 0)"/>
      <use xlink:href="#DejaVuSans-67" transform="translate(1040.275391 0)"/>
      <use xlink:href="#DejaVuSans-63" transform="translate(1103.751953 0)"/>
      <use xlink:href="#DejaVuSans-61" transform="translate(1158.732422 0)"/>
      <use xlink:href="#DejaVuSans-73" transform="translate(1220.011719 0)"/>
      <use xlink:href="#DejaVuSans-65" transform="translate(1272.111328 0)"/>
      <use xlink:href="#DejaVuSans-29" transform="translate(1333.634766 0)"/>
      <use xlink:href="#DejaVuSans-20" transform="translate(1372.648438 0)"/>
      <use xlink:href="#DejaVuSans-61" transform="translate(1404.435547 0)"/>
      <use xlink:href="#DejaVuSans-63" transform="translate(1465.714844 0)"/>
      <use xlink:href="#DejaVuSans-74" transform="translate(1520.695312 0)"/>
      <use xlink:href="#DejaVuSans-69" transform="translate(1559.904297 0)"/>
      <use xlink:href="#DejaVuSans-76" transform="translate(1587.6875 0)"/>
      <use xlink:href="#DejaVuSans-69" transform="translate(1646.867188 0)"/>
      <use xlink:href="#DejaVuSans-74" transform="translate(1674.650391 0)"/>
      <use xlink:href="#DejaVuSans-79" transform="translate(1713.859375 0)"/>
     </g>
    </g>
   </g>
   <g id="text_9">
    <g clip-path="url(#pb054234564)">
     <!-- abx -->
     <g style="opacity: 0.8" transform="translate(337.239648 363.449219) scale(0.125 -0.125)">
      <use xlink:href="#DejaVuSans-61"/>
      <use xlink:href="#DejaVuSans-62" transform="translate(61.279297 0)"/>
      <use xlink:href="#DejaVuSans-78" transform="translate(124.755859 0)"/>
     </g>
    </g>
   </g>
   <g id="text_10">
    <g clip-path="url(#pb054234564)">
     <!-- mechanism of action -->
     <g style="opacity: 0.8" transform="translate(410.808073 363.449219) scale(0.125 -0.125)">
      <use xlink:href="#DejaVuSans-6d"/>
      <use xlink:href="#DejaVuSans-65" transform="translate(97.412109 0)"/>
      <use xlink:href="#DejaVuSans-63" transform="translate(158.935547 0)"/>
      <use xlink:href="#DejaVuSans-68" transform="translate(213.916016 0)"/>
      <use xlink:href="#DejaVuSans-61" transform="translate(277.294922 0)"/>
      <use xlink:href="#DejaVuSans-6e" transform="translate(338.574219 0)"/>
      <use xlink:href="#DejaVuSans-69" transform="translate(401.953125 0)"/>
      <use xlink:href="#DejaVuSans-73" transform="translate(429.736328 0)"/>
      <use xlink:href="#DejaVuSans-6d" transform="translate(481.835938 0)"/>
      <use xlink:href="#DejaVuSans-20" transform="translate(579.248047 0)"/>
      <use xlink:href="#DejaVuSans-6f" transform="translate(611.035156 0)"/>
      <use xlink:href="#DejaVuSans-66" transform="translate(672.216797 0)"/>
      <use xlink:href="#DejaVuSans-20" transform="translate(707.421875 0)"/>
      <use xlink:href="#DejaVuSans-61" transform="translate(739.208984 0)"/>
      <use xlink:href="#DejaVuSans-63" transform="translate(800.488281 0)"/>
      <use xlink:href="#DejaVuSans-74" transform="translate(855.46875 0)"/>
      <use xlink:href="#DejaVuSans-69" transform="translate(894.677734 0)"/>
      <use xlink:href="#DejaVuSans-6f" transform="translate(922.460938 0)"/>
      <use xlink:href="#DejaVuSans-6e" transform="translate(983.642578 0)"/>
     </g>
    </g>
   </g>
   <g id="text_11">
    <g clip-path="url(#pb054234564)">
     <!-- pladienolide b -->
     <g style="opacity: 0.8" transform="translate(559.645052 363.449219) scale(0.125 -0.125)">
      <use xlink:href="#DejaVuSans-70"/>
      <use xlink:href="#DejaVuSans-6c" transform="translate(63.476562 0)"/>
      <use xlink:href="#DejaVuSans-61" transform="translate(91.259766 0)"/>
      <use xlink:href="#DejaVuSans-64" transform="translate(152.539062 0)"/>
      <use xlink:href="#DejaVuSans-69" transform="translate(216.015625 0)"/>
      <use xlink:href="#DejaVuSans-65" transform="translate(243.798828 0)"/>
      <use xlink:href="#DejaVuSans-6e" transform="translate(305.322266 0)"/>
      <use xlink:href="#DejaVuSans-6f" transform="translate(368.701172 0)"/>
      <use xlink:href="#DejaVuSans-6c" transform="translate(429.882812 0)"/>
      <use xlink:href="#DejaVuSans-69" transform="translate(457.666016 0)"/>
      <use xlink:href="#DejaVuSans-64" transform="translate(485.449219 0)"/>
      <use xlink:href="#DejaVuSans-65" transform="translate(548.925781 0)"/>
      <use xlink:href="#DejaVuSans-20" transform="translate(610.449219 0)"/>
      <use xlink:href="#DejaVuSans-62" transform="translate(642.236328 0)"/>
     </g>
    </g>
   </g>
   <g id="text_12">
    <g clip-path="url(#pb054234564)">
     <!-- potent compounds -->
     <g style="opacity: 0.8" transform="translate(672.491798 363.449219) scale(0.125 -0.125)">
      <use xlink:href="#DejaVuSans-70"/>
      <use xlink:href="#DejaVuSans-6f" transform="translate(63.476562 0)"/>
      <use xlink:href="#DejaVuSans-74" transform="translate(124.658203 0)"/>
      <use xlink:href="#DejaVuSans-65" transform="translate(163.867188 0)"/>
      <use xlink:href="#DejaVuSans-6e" transform="translate(225.390625 0)"/>
      <use xlink:href="#DejaVuSans-74" transform="translate(288.769531 0)"/>
      <use xlink:href="#DejaVuSans-20" transform="translate(327.978516 0)"/>
      <use xlink:href="#DejaVuSans-63" transform="translate(359.765625 0)"/>
      <use xlink:href="#DejaVuSans-6f" transform="translate(414.746094 0)"/>
      <use xlink:href="#DejaVuSans-6d" transform="translate(475.927734 0)"/>
      <use xlink:href="#DejaVuSans-70" transform="translate(573.339844 0)"/>
      <use xlink:href="#DejaVuSans-6f" transform="translate(636.816406 0)"/>
      <use xlink:href="#DejaVuSans-75" transform="translate(697.998047 0)"/>
      <use xlink:href="#DejaVuSans-6e" transform="translate(761.376953 0)"/>
      <use xlink:href="#DejaVuSans-64" transform="translate(824.755859 0)"/>
      <use xlink:href="#DejaVuSans-73" transform="translate(888.232422 0)"/>
     </g>
    </g>
   </g>
   <g id="text_13">
    <g clip-path="url(#pb054234564)">
     <!-- trans-isrib -->
     <g style="opacity: 0.8" transform="translate(827.185223 363.449219) scale(0.125 -0.125)">
      <defs>
       <path id="DejaVuSans-2d" d="M 313 2009 
L 1997 2009 
L 1997 1497 
L 313 1497 
L 313 2009 
z
" transform="scale(0.015625)"/>
      </defs>
      <use xlink:href="#DejaVuSans-74"/>
      <use xlink:href="#DejaVuSans-72" transform="translate(39.208984 0)"/>
      <use xlink:href="#DejaVuSans-61" transform="translate(80.322266 0)"/>
      <use xlink:href="#DejaVuSans-6e" transform="translate(141.601562 0)"/>
      <use xlink:href="#DejaVuSans-73" transform="translate(204.980469 0)"/>
      <use xlink:href="#DejaVuSans-2d" transform="translate(257.080078 0)"/>
      <use xlink:href="#DejaVuSans-69" transform="translate(293.164062 0)"/>
      <use xlink:href="#DejaVuSans-73" transform="translate(320.947266 0)"/>
      <use xlink:href="#DejaVuSans-72" transform="translate(373.046875 0)"/>
      <use xlink:href="#DejaVuSans-69" transform="translate(414.160156 0)"/>
      <use xlink:href="#DejaVuSans-62" transform="translate(441.943359 0)"/>
     </g>
    </g>
   </g>
   <g id="text_14">
    <g clip-path="url(#pb054234564)">
     <!-- tfeb -->
     <g style="opacity: 0.8" transform="translate(973.817125 363.449219) scale(0.125 -0.125)">
      <use xlink:href="#DejaVuSans-74"/>
      <use xlink:href="#DejaVuSans-66" transform="translate(39.208984 0)"/>
      <use xlink:href="#DejaVuSans-65" transform="translate(74.414062 0)"/>
      <use xlink:href="#DejaVuSans-62" transform="translate(135.9375 0)"/>
     </g>
    </g>
   </g>
  </g>
 </g>
 <defs>
  <clipPath id="pb054234564">
   <rect x="0" y="0" width="1080" height="720"/>
  </clipPath>
 </defs>
</svg>
